<svg width="25" height="22" viewBox="0 0 25 22" fill="none" xmlns="http://www.w3.org/2000/svg">
<path fill-rule="evenodd" clip-rule="evenodd" d="M0.5 1.65001V0.350006H4.17996C4.61508 0.350006 4.98258 0.556674 5.25137 0.751447C5.51896 0.945356 5.77691 1.19463 5.99497 1.40536L6.01161 1.42144C6.21735 1.62023 6.37347 1.90786 6.48594 2.14691C6.60757 2.40546 6.7168 2.69347 6.80692 2.95468C6.89773 3.21789 6.97289 3.46491 7.02521 3.64547C7.05146 3.73605 7.07218 3.81063 7.08645 3.86304L7.09789 3.90556H24.15V4.55556V11.2222C24.15 11.722 23.9714 12.1282 23.6908 12.4331C23.4234 12.7238 23.0892 12.8957 22.8014 13C22.5102 13.1055 22.2282 13.1555 22.0254 13.18C21.9223 13.1925 21.8355 13.1988 21.7726 13.2021C21.7411 13.2037 21.7154 13.2046 21.6963 13.205L21.6728 13.2055L21.665 13.2055L21.6622 13.2056L21.661 13.2056C21.6607 13.2056 21.66 13.2056 21.66 12.5556V13.2056H7.74691C7.74712 13.2082 7.74732 13.2109 7.74753 13.2136C7.78097 13.6448 7.82557 14.2292 7.87018 14.8417C7.95822 16.0503 8.04996 17.4144 8.04996 17.8889C8.04996 17.9864 8.13259 18.1501 8.4298 18.347C8.55813 18.4321 8.69112 18.4986 8.79461 18.5443C8.81877 18.555 8.8408 18.5643 8.8602 18.5722H9.10743C9.15154 18.4081 9.21692 18.2229 9.31435 18.0346C9.47013 17.7336 9.71282 17.4161 10.0859 17.1758C10.462 16.9335 10.9324 16.7945 11.5016 16.7945C12.0709 16.7945 12.5413 16.9335 12.9174 17.1758C13.2904 17.4161 13.5331 17.7336 13.6889 18.0346C13.7863 18.2229 13.8517 18.4081 13.8958 18.5722H16.4674C16.5115 18.4081 16.5769 18.2229 16.6743 18.0346C16.8301 17.7336 17.0728 17.4161 17.4459 17.1758C17.822 16.9335 18.2924 16.7945 18.8616 16.7945C19.4309 16.7945 19.9013 16.9335 20.2774 17.1758C20.6504 17.4161 20.8931 17.7336 21.0489 18.0346C21.2031 18.3326 21.2771 18.6231 21.3134 18.834C21.3319 18.9409 21.3414 19.0314 21.3463 19.0979C21.3487 19.1313 21.3501 19.1589 21.3508 19.1798L21.3515 19.2063L21.3516 19.2156L21.3516 19.2193L21.3516 19.2208C21.3516 19.2212 21.3516 19.2222 20.7016 19.2222C21.3516 19.2222 21.3516 19.2226 21.3516 19.2229L21.3516 19.2252L21.3516 19.2289L21.3515 19.2382L21.3508 19.2646C21.3501 19.2856 21.3487 19.3132 21.3463 19.3465C21.3414 19.413 21.3319 19.5036 21.3134 19.6105C21.2771 19.8213 21.2031 20.1118 21.0489 20.4099C20.8931 20.7109 20.6504 21.0284 20.2774 21.2687C19.9013 21.5109 19.4309 21.65 18.8616 21.65C18.2924 21.65 17.822 21.5109 17.4459 21.2687C17.0728 21.0284 16.8301 20.7109 16.6743 20.4099C16.5769 20.2216 16.5115 20.0363 16.4674 19.8722H13.8958C13.8517 20.0363 13.7863 20.2216 13.6889 20.4099C13.5331 20.7109 13.2904 21.0284 12.9174 21.2687C12.5413 21.5109 12.0709 21.65 11.5016 21.65C10.9324 21.65 10.462 21.5109 10.0859 21.2687C9.71282 21.0284 9.47013 20.7109 9.31435 20.4099C9.21692 20.2216 9.15154 20.0363 9.10743 19.8722H8.63677L8.53723 19.8393L8.74163 19.2222C8.53723 19.8393 8.53742 19.8393 8.53723 19.8393L8.53554 19.8387L8.53334 19.838L8.52747 19.836L8.51001 19.8299C8.49591 19.8249 8.47696 19.818 8.45384 19.8093C8.4077 19.7918 8.34434 19.7666 8.26938 19.7335C8.12131 19.6681 7.91888 19.568 7.7118 19.4308C7.33817 19.1832 6.74996 18.6803 6.74996 17.8889C6.74996 17.4745 6.66364 16.172 6.57362 14.9361C6.5292 14.3263 6.48476 13.7441 6.45142 13.3141C6.43476 13.0992 6.42087 12.9225 6.41116 12.7995L6.39597 12.6082C6.39597 12.6082 6.39591 12.6075 7.04383 12.5556L6.39597 12.6082L6.39522 12.5989L5.83563 4.21762L5.83215 4.20468C5.81947 4.15813 5.80065 4.09035 5.77659 4.00732C5.72829 3.84066 5.6597 3.61545 5.578 3.37866C5.49562 3.13987 5.4036 2.90011 5.30961 2.70032C5.26273 2.60068 5.21883 2.51843 5.17938 2.45489C5.15989 2.42351 5.14325 2.39956 5.12984 2.38203C5.12325 2.37342 5.11797 2.36705 5.11409 2.36261C5.11027 2.35826 5.10831 2.35635 5.10831 2.35635C4.86984 2.12594 4.67413 1.93859 4.48856 1.80412C4.29735 1.66556 4.20484 1.65001 4.17996 1.65001H0.5ZM7.65188 11.9056L7.20449 5.20556H22.85V11.2222C22.85 11.3891 22.7986 11.4829 22.7341 11.553C22.6565 11.6373 22.5307 11.7154 22.3585 11.7778C22.1898 11.8389 22.0117 11.8722 21.8695 11.8894C21.8001 11.8978 21.7432 11.9019 21.7054 11.9038C21.6866 11.9048 21.6728 11.9052 21.6649 11.9054L21.6591 11.9056H7.65188ZM10.3118 19.2222C10.312 19.2279 10.3125 19.2376 10.3135 19.2507C10.3157 19.2814 10.3206 19.3297 10.3309 19.3895C10.3521 19.512 10.3931 19.666 10.4689 19.8124C10.5431 19.9558 10.6454 20.0828 10.7899 20.1758C10.9313 20.2669 11.1509 20.35 11.5016 20.35C11.8524 20.35 12.072 20.2669 12.2134 20.1758C12.3578 20.0828 12.4601 19.9558 12.5343 19.8124C12.6101 19.666 12.6512 19.512 12.6723 19.3895C12.6826 19.3297 12.6875 19.2814 12.6898 19.2507C12.6908 19.2376 12.6913 19.2279 12.6915 19.2222C12.6913 19.2165 12.6908 19.2069 12.6898 19.1938C12.6875 19.163 12.6826 19.1147 12.6723 19.0549C12.6512 18.9324 12.6101 18.7785 12.5343 18.6321C12.4601 18.4887 12.3578 18.3617 12.2134 18.2687C12.072 18.1776 11.8524 18.0944 11.5016 18.0944C11.1509 18.0944 10.9313 18.1776 10.7899 18.2687C10.6454 18.3617 10.5431 18.4887 10.4689 18.6321C10.3931 18.7785 10.3521 18.9324 10.3309 19.0549C10.3206 19.1147 10.3157 19.163 10.3135 19.1938C10.3125 19.2069 10.312 19.2165 10.3118 19.2222ZM17.6718 19.2222C17.672 19.2279 17.6725 19.2376 17.6735 19.2507C17.6757 19.2814 17.6806 19.3297 17.6909 19.3895C17.7121 19.512 17.7531 19.666 17.8289 19.8124C17.9031 19.9558 18.0054 20.0828 18.1499 20.1758C18.2913 20.2669 18.5109 20.35 18.8616 20.35C19.2124 20.35 19.432 20.2669 19.5734 20.1758C19.7178 20.0828 19.8201 19.9558 19.8943 19.8124C19.9701 19.666 20.0112 19.512 20.0323 19.3895C20.0427 19.3297 20.0475 19.2814 20.0498 19.2507C20.0508 19.2376 20.0513 19.2279 20.0515 19.2222C20.0513 19.2165 20.0508 19.2069 20.0498 19.1938C20.0475 19.163 20.0427 19.1147 20.0323 19.0549C20.0112 18.9324 19.9701 18.7785 19.8944 18.6321C19.8201 18.4887 19.7178 18.3617 19.5734 18.2687C19.432 18.1776 19.2124 18.0944 18.8616 18.0944C18.5109 18.0944 18.2913 18.1776 18.1499 18.2687C18.0054 18.3617 17.9031 18.4887 17.8289 18.6321C17.7531 18.7785 17.7121 18.9324 17.6909 19.0549C17.6806 19.1147 17.6757 19.163 17.6735 19.1938C17.6728 19.2019 17.6724 19.2088 17.6722 19.2141C17.672 19.2174 17.6719 19.2201 17.6718 19.2222Z" fill="#A0148E"/>
</svg>
