<svg width="22" height="19" viewBox="0 0 22 19" fill="none" xmlns="http://www.w3.org/2000/svg">
<path d="M20.223 1.76393C19.071 0.632264 17.5459 0.0137449 15.9182 0.0137449C14.2904 0.0137449 12.7606 0.636846 11.6086 1.76851L11.007 2.35954L10.396 1.75934C9.24401 0.627683 7.70957 0 6.08184 0C4.45878 0 2.929 0.623101 1.78166 1.75018C0.629662 2.88184 -0.00463843 4.38462 2.55386e-05 5.9836C2.55386e-05 7.58259 0.638989 9.08078 1.79099 10.2124L10.5499 18.8167C10.6712 18.9359 10.8344 19 10.993 19C11.1516 19 11.3148 18.9404 11.4361 18.8213L20.2137 10.2308C21.3657 9.09911 22 7.59633 22 5.99735C22.0046 4.39836 21.375 2.89559 20.223 1.76393ZM19.3275 9.35568L10.993 17.511L2.67714 9.34193C1.76301 8.44394 1.2593 7.25271 1.2593 5.9836C1.2593 4.71449 1.75834 3.52327 2.67248 2.62985C3.58195 1.73644 4.79459 1.24162 6.08184 1.24162C7.37376 1.24162 8.59106 1.73644 9.5052 2.63443L10.5593 3.66988C10.8064 3.91271 11.2029 3.91271 11.4501 3.66988L12.4948 2.6436C13.4089 1.7456 14.6262 1.25078 15.9135 1.25078C17.2007 1.25078 18.4134 1.7456 19.3275 2.63902C20.2417 3.53701 20.7407 4.72824 20.7407 5.99735C20.7454 7.26646 20.2417 8.45768 19.3275 9.35568Z" fill="#A0148E"/>
</svg>
