<svg width="19" height="18" viewBox="0 0 19 18" fill="none" xmlns="http://www.w3.org/2000/svg">
<path d="M16.1967 0H3.53856C2.09261 0 0.916016 1.17659 0.916016 2.62254V15.2807C0.916016 16.7266 2.09261 17.9032 3.53856 17.9032H16.1967C17.6426 17.9032 18.8192 16.7266 18.8192 15.2807V2.62254C18.8192 1.17659 17.6426 0 16.1967 0ZM9.9026 13.6372C7.29959 13.6372 5.18202 11.5197 5.18202 8.91665C5.18202 6.31363 7.29959 4.19607 9.9026 4.19607C12.5056 4.19607 14.6232 6.31363 14.6232 8.91665C14.6232 11.5197 12.5056 13.6372 9.9026 13.6372ZM15.1477 5.24509C14.2801 5.24509 13.5742 4.53918 13.5742 3.67156C13.5742 2.80394 14.2801 2.09803 15.1477 2.09803C16.0153 2.09803 16.7212 2.80394 16.7212 3.67156C16.7212 4.53918 16.0153 5.24509 15.1477 5.24509Z" fill="url(#paint0_linear)"/>
<path d="M15.1477 3.14712C14.8582 3.14712 14.6232 3.3822 14.6232 3.67163C14.6232 3.96107 14.8582 4.19614 15.1477 4.19614C15.4371 4.19614 15.6722 3.96107 15.6722 3.67163C15.6722 3.3822 15.4371 3.14712 15.1477 3.14712Z" fill="url(#paint1_linear)"/>
<path d="M9.9026 5.24513C7.87832 5.24513 6.23104 6.89241 6.23104 8.91669C6.23104 10.941 7.87832 12.5883 9.9026 12.5883C11.9269 12.5883 13.5742 10.941 13.5742 8.91669C13.5742 6.89241 11.9269 5.24513 9.9026 5.24513Z" fill="url(#paint2_linear)"/>
<defs>
<linearGradient id="paint0_linear" x1="9.86763" y1="0" x2="9.86763" y2="17.9032" gradientUnits="userSpaceOnUse">
<stop stop-color="#F200A3"/>
<stop offset="0.494792" stop-color="#FF0000"/>
<stop offset="1" stop-color="#FFC100"/>
</linearGradient>
<linearGradient id="paint1_linear" x1="9.86763" y1="0" x2="9.86763" y2="17.9032" gradientUnits="userSpaceOnUse">
<stop stop-color="#F200A3"/>
<stop offset="0.494792" stop-color="#FF0000"/>
<stop offset="1" stop-color="#FFC100"/>
</linearGradient>
<linearGradient id="paint2_linear" x1="9.86763" y1="0" x2="9.86763" y2="17.9032" gradientUnits="userSpaceOnUse">
<stop stop-color="#F200A3"/>
<stop offset="0.494792" stop-color="#FF0000"/>
<stop offset="1" stop-color="#FFC100"/>
</linearGradient>
</defs>
</svg>
