<svg width="18" height="17" viewBox="0 0 18 17" fill="none" xmlns="http://www.w3.org/2000/svg">
<path fill-rule="evenodd" clip-rule="evenodd" d="M2.5 1.75H0V0.25H2.5V1.75ZM7.5 1.75H5V0.25H7.5V1.75ZM12.5 1.75H10V0.25H12.5V1.75ZM17.5 1.75H15V0.25H17.5V1.75ZM2.5 6.75H0V5.25H2.5V6.75ZM7.5 6.75H5V5.25H7.5V6.75ZM12.5 6.75H10V5.25H12.5V6.75ZM17.5 6.75H15V5.25H17.5V6.75ZM2.5 11.75H0V10.25H2.5V11.75ZM7.5 11.75H5V10.25H7.5V11.75ZM12.5 11.75H10V10.25H12.5V11.75ZM17.5 11.75H15V10.25H17.5V11.75ZM2.5 16.75H0V15.25H2.5V16.75ZM7.5 16.75H5V15.25H7.5V16.75ZM12.5 16.75H10V15.25H12.5V16.75ZM17.5 16.75H15V15.25H17.5V16.75Z" fill="#A0148E"/>
</svg>
