<svg width="4" height="7" viewBox="0 0 4 7" fill="none" xmlns="http://www.w3.org/2000/svg">
<path d="M3.91893 7H0.0669336V5.947L1.33593 4.66C1.78593 4.198 2.09793 3.844 2.27193 3.598C2.45193 3.352 2.54193 3.091 2.54193 2.815C2.54193 2.533 2.46693 2.335 2.31693 2.221C2.17293 2.107 1.96593 2.05 1.69593 2.05C1.29393 2.05 0.855934 2.086 0.381934 2.158L0.165934 2.185L0.102934 1.222C0.690934 1.042 1.29993 0.952 1.92993 0.952C3.18993 0.952 3.81993 1.519 3.81993 2.653C3.81993 3.097 3.72393 3.481 3.53193 3.805C3.33993 4.129 2.99193 4.522 2.48793 4.984L1.45293 5.92H3.91893V7Z" fill="white"/>
</svg>
