<svg width="19" height="18" viewBox="0 0 19 18" fill="none" xmlns="http://www.w3.org/2000/svg">
<path d="M17.6747 2.02513e-08H1.74715C1.20177 0.00032784 0.759656 0.442663 0.759766 0.988262V16.9158C0.760093 17.4612 1.20243 17.9033 1.74803 17.9032H10.3233V10.9797H7.99798V8.26975H10.3233V6.27542C10.3233 3.96266 11.7352 2.70384 13.7983 2.70384C14.7864 2.70384 15.6356 2.77749 15.8831 2.81038V5.2276H14.4605C13.338 5.2276 13.1207 5.76096 13.1207 6.54379V8.26975H15.8044L15.4547 10.9797H13.1207V17.9032H17.6747C18.2204 17.9033 18.6629 17.4611 18.663 16.9154C18.663 16.9153 18.663 16.9152 18.663 16.915V0.987387C18.6628 0.442008 18.2203 -0.000109252 17.6747 2.02513e-08Z" fill="#3B589E"/>
</svg>
