<svg width="19" height="18" viewBox="0 0 19 18" fill="none" xmlns="http://www.w3.org/2000/svg">
<path d="M17.6767 2.02513e-08H1.74911C1.20373 0.00032784 0.761609 0.442663 0.761719 0.988262V16.9158C0.762047 17.4612 1.20438 17.9033 1.74998 17.9032H10.3253V10.9797H7.99994V8.26975H10.3253V6.27542C10.3253 3.96266 11.7372 2.70384 13.8002 2.70384C14.7884 2.70384 15.6375 2.77749 15.885 2.81038V5.2276H14.4624C13.34 5.2276 13.1226 5.76096 13.1226 6.54379V8.26975H15.8064L15.4567 10.9797H13.1226V17.9032H17.6767C18.2224 17.9033 18.6648 17.4611 18.6649 16.9154C18.6649 16.9153 18.6649 16.9152 18.6649 16.915V0.987387C18.6647 0.442008 18.2223 -0.000109252 17.6767 2.02513e-08Z" fill="currentColor"/>
</svg>
