<svg width="19" height="18" viewBox="0 0 19 18" fill="none" xmlns="http://www.w3.org/2000/svg">
<path d="M16.1987 0H3.54051C2.09456 0 0.917969 1.17659 0.917969 2.62254V15.2807C0.917969 16.7266 2.09456 17.9032 3.54051 17.9032H16.1987C17.6446 17.9032 18.8212 16.7266 18.8212 15.2807V2.62254C18.8212 1.17659 17.6446 0 16.1987 0ZM9.90455 13.6372C7.30154 13.6372 5.18397 11.5197 5.18397 8.91665C5.18397 6.31363 7.30154 4.19607 9.90455 4.19607C12.5076 4.19607 14.6251 6.31363 14.6251 8.91665C14.6251 11.5197 12.5076 13.6372 9.90455 13.6372ZM15.1496 5.24509C14.282 5.24509 13.5761 4.53918 13.5761 3.67156C13.5761 2.80394 14.282 2.09803 15.1496 2.09803C16.0173 2.09803 16.7232 2.80394 16.7232 3.67156C16.7232 4.53918 16.0173 5.24509 15.1496 5.24509Z" fill="currentColor"/>
<path d="M15.1495 3.14713C14.8601 3.14713 14.625 3.3822 14.625 3.67163C14.625 3.96107 14.8601 4.19614 15.1495 4.19614C15.4389 4.19614 15.674 3.96107 15.674 3.67163C15.674 3.3822 15.4389 3.14713 15.1495 3.14713Z" fill="currentColor"/>
<path d="M9.90594 5.24512C7.88166 5.24512 6.23438 6.8924 6.23438 8.91668C6.23438 10.941 7.88166 12.5882 9.90594 12.5882C11.9302 12.5882 13.5775 10.941 13.5775 8.91668C13.5775 6.8924 11.9302 5.24512 9.90594 5.24512Z" fill="currentColor"/>
</svg>
