<svg width="21" height="23" viewBox="0 0 21 23" fill="none" xmlns="http://www.w3.org/2000/svg">
<path d="M7.18421 12.8696C7.18421 12.8696 1.5 15.1522 1.5 17.8913C1.5 20.6304 4.34211 22 6.23684 22C8.13158 22 10.5 22 10.5 22C10.5 22 12.8684 22 14.7632 22C16.6579 22 19.5 20.6304 19.5 17.8913C19.5 15.1522 13.8158 12.8696 13.8158 12.8696M10.5 1C8.13158 1 6.23684 3.69339 6.23684 6.47826C6.23684 9.26313 8.13158 11.9565 10.5 11.9565C12.8684 11.9565 14.7632 9.21739 14.7632 6.47826C14.7632 3.73913 12.8684 1 10.5 1Z" stroke="#A0148E" stroke-width="1.2"/>
</svg>
