<svg width="21" height="23" viewBox="0 0 21 23" fill="none" xmlns="http://www.w3.org/2000/svg">
<path fill-rule="evenodd" clip-rule="evenodd" d="M6.99952 2.33371C7.84673 1.20944 9.07328 0.399994 10.4984 0.399994C11.9272 0.399994 13.1534 1.22466 13.9983 2.35214C14.8453 3.48239 15.3616 4.97802 15.3616 6.47825C15.3616 7.97849 14.8453 9.47412 13.9983 10.6044C13.1534 11.7319 11.9272 12.5565 10.4984 12.5565C9.07328 12.5565 7.84673 11.7471 6.99952 10.6228C6.15075 9.49646 5.63528 7.99993 5.63528 6.47825C5.63528 4.95658 6.15075 3.46005 6.99952 2.33371ZM7.95788 3.05589C7.26718 3.97246 6.83528 5.21506 6.83528 6.47825C6.83528 7.74145 7.26718 8.98405 7.95788 9.90062C8.65014 10.8193 9.55517 11.3565 10.4984 11.3565C11.4381 11.3565 12.3435 10.8116 13.038 9.88475C13.7305 8.96066 14.1616 7.71715 14.1616 6.47825C14.1616 5.23936 13.7305 3.99585 13.038 3.07176C12.3435 2.1449 11.4381 1.59999 10.4984 1.59999C9.55517 1.59999 8.65014 2.13724 7.95788 3.05589ZM6.95877 12.3129C6.95893 12.3128 6.95906 12.3128 7.18265 12.8696C7.40624 13.4263 7.40633 13.4263 7.4064 13.4263L7.40395 13.4273L7.39364 13.4315L7.35004 13.4495C7.31109 13.4658 7.25289 13.4904 7.1782 13.523C7.02874 13.5882 6.81367 13.6849 6.55496 13.8095C6.03608 14.0596 5.34855 14.4188 4.66487 14.858C3.97702 15.3 3.31683 15.808 2.83493 16.3498C2.34732 16.8981 2.09844 17.4168 2.09844 17.8913C2.09844 19.0252 2.67799 19.8867 3.50782 20.4866C4.35148 21.0964 5.41235 21.4 6.23528 21.4H10.4975L10.4984 22L10.4984 22.6H6.23528C5.16347 22.6 3.85592 22.2188 2.80484 21.4591C1.73994 20.6893 0.898438 19.4965 0.898438 17.8913C0.898438 16.9962 1.36009 16.2024 1.93826 15.5523C2.52215 14.8958 3.28301 14.3196 4.01621 13.8485C4.75358 13.3747 5.48711 12.992 6.03402 12.7285C6.3082 12.5964 6.53721 12.4934 6.69861 12.423C6.77935 12.3878 6.84327 12.3607 6.88759 12.3422L6.93904 12.3209L6.95311 12.3152L6.95712 12.3136L6.95877 12.3129ZM10.4984 22L10.4984 22.6H14.7616C15.8334 22.6 17.141 22.2188 18.192 21.4591C19.2569 20.6893 20.0984 19.4965 20.0984 17.8913C20.0984 16.9962 19.6368 16.2024 19.0586 15.5523C18.4747 14.8958 17.7139 14.3196 16.9807 13.8485C16.2433 13.3747 15.5098 12.992 14.9629 12.7285C14.6887 12.5964 14.4597 12.4934 14.2983 12.423C14.2175 12.3878 14.1536 12.3607 14.1093 12.3422L14.0578 12.3209L14.0438 12.3152L14.0398 12.3136L14.0385 12.3131C14.0384 12.313 14.0378 12.3128 13.8142 12.8696C13.5906 13.4263 13.5905 13.4263 13.5905 13.4263L13.5929 13.4273L13.6032 13.4315L13.6468 13.4495C13.6858 13.4658 13.744 13.4904 13.8187 13.523C13.9681 13.5882 14.1832 13.6849 14.4419 13.8095C14.9608 14.0596 15.6483 14.4188 16.332 14.858C17.0199 15.3 17.68 15.808 18.1619 16.3498C18.6496 16.8981 18.8984 17.4168 18.8984 17.8913C18.8984 19.0252 18.3189 19.8867 17.4891 20.4866C16.6454 21.0964 15.5845 21.4 14.7616 21.4H10.4994L10.4984 22Z" fill="currentColor"/>
</svg>
