<svg width="62" height="52" viewBox="0 0 62 52" fill="none" xmlns="http://www.w3.org/2000/svg">
<path d="M60.1939 0.00203856H49.7479C49.5115 0.00217357 49.2847 0.096166 49.1175 0.263367C48.9503 0.430569 48.8564 0.657304 48.8562 0.893762V3.30804L46.578 2.32001C46.4661 2.27137 46.3454 2.24627 46.2233 2.24627C46.1013 2.24627 45.9806 2.27137 45.8687 2.32001L42.6992 3.69581L39.5293 2.32001C39.4174 2.27137 39.2967 2.24627 39.1746 2.24627C39.0526 2.24627 38.9319 2.27137 38.82 2.32001L35.65 3.69581L32.4806 2.32001C32.3686 2.27136 32.2478 2.24625 32.1257 2.24625C32.0036 2.24625 31.8828 2.27136 31.7708 2.32001L28.6013 3.69581L25.4319 2.32001C25.3199 2.27136 25.1991 2.24625 25.077 2.24625C24.9549 2.24625 24.8341 2.27136 24.7221 2.32001L22.4444 3.30804V0.891724C22.4442 0.655265 22.3502 0.428531 22.183 0.261329C22.0158 0.0941279 21.7891 0.000135003 21.5527 0H1.59485C1.35839 0.000135003 1.13166 0.0941279 0.964454 0.261329C0.797252 0.428531 0.70326 0.655265 0.703125 0.891724V50.4756C0.703799 50.7118 0.79803 50.938 0.965173 51.1047C1.13232 51.2715 1.35874 51.3652 1.59485 51.3653H21.5527C21.7891 51.3652 22.0158 51.2712 22.183 51.104C22.3502 50.9368 22.4442 50.7101 22.4444 50.4736V48.0593L24.7221 49.0474C24.8341 49.096 24.9549 49.1211 25.077 49.1211C25.1991 49.1211 25.3199 49.096 25.4319 49.0474L28.6013 47.6716L31.7708 49.0474C31.8828 49.096 32.0036 49.1211 32.1257 49.1211C32.2478 49.1211 32.3686 49.096 32.4806 49.0474L35.65 47.6716L38.82 49.0474C38.9319 49.0961 39.0526 49.1212 39.1746 49.1212C39.2967 49.1212 39.4174 49.0961 39.5293 49.0474L42.6992 47.6716L45.8687 49.0474C45.9806 49.096 46.1013 49.1211 46.2233 49.1211C46.3454 49.1211 46.4661 49.096 46.578 49.0474L48.8562 48.0593V50.4736C48.8564 50.7101 48.9503 50.9368 49.1175 51.104C49.2847 51.2712 49.5115 51.3652 49.7479 51.3653H60.1939C60.4303 51.3652 60.657 51.2712 60.8242 51.104C60.9914 50.9368 61.0854 50.7101 61.0856 50.4736V0.891724C61.0849 0.655619 60.9907 0.429407 60.8235 0.262646C60.6564 0.0958848 60.43 0.00217244 60.1939 0.00203856ZM25.9685 4.4948L27.7096 5.25047V46.1169L25.9685 46.8716V4.4948ZM29.4931 5.25047L31.2342 4.49582V46.8736L29.4931 46.1169V5.25047ZM33.0177 4.49582L34.7583 5.25047V46.1169L33.0177 46.8716V4.49582ZM36.5418 5.25047L38.2829 4.4948V46.8726L36.5418 46.1169V5.25047ZM40.0664 4.4948L41.8075 5.25047V46.1169L40.0664 46.8726V4.4948ZM43.591 5.25047L45.3316 4.49582V46.8736L43.591 46.1169V5.25047ZM7.32736 10.2059H14.5462V11.4375H7.32736C7.09086 11.4375 6.86405 11.5315 6.69682 11.6987C6.52959 11.8659 6.43564 12.0927 6.43564 12.3292V12.9662H2.48657V8.67724H6.43564V9.31418C6.43577 9.55064 6.52976 9.77738 6.69696 9.94458C6.86417 10.1118 7.0909 10.2058 7.32736 10.2059ZM14.5462 14.4948H8.21908V13.221H14.5462V14.4948ZM7.32736 16.2783H14.5462V20.2274H7.32736C7.09086 20.2274 6.86405 20.3213 6.69682 20.4885C6.52959 20.6558 6.43564 20.8826 6.43564 21.1191V21.756H2.48657V14.7496H6.43564V15.3866C6.43577 15.623 6.52976 15.8498 6.69696 16.017C6.86417 16.1842 7.0909 16.2782 7.32736 16.2783ZM14.5462 23.2847H8.21908V22.0108H14.5462V23.2847ZM6.43564 23.5395V24.1764C6.43577 24.4129 6.52976 24.6396 6.69696 24.8068C6.86417 24.974 7.0909 25.068 7.32736 25.0681H14.5462V26.2992H7.32736C7.0909 26.2994 6.86417 26.3934 6.69696 26.5606C6.52976 26.7278 6.43577 26.9545 6.43564 27.191V27.8279H2.48657V23.5395H6.43564ZM14.5462 29.3566H8.21908V28.0827H14.5462V29.3566ZM6.43564 29.6113V30.2483C6.43564 30.4848 6.52959 30.7116 6.69682 30.8788C6.86405 31.0461 7.09086 31.14 7.32736 31.14H14.5462V35.0891H7.32736C7.0909 35.0892 6.86417 35.1832 6.69696 35.3504C6.52976 35.5176 6.43577 35.7443 6.43564 35.9808V36.6177H2.48657V29.6113H6.43564ZM8.21908 36.8725H14.5462V38.1464H8.21908V36.8725ZM14.5462 8.42246H8.21908V7.14857H14.5462V8.42246ZM2.48657 38.4012H6.43564V39.0381C6.43564 39.2746 6.52959 39.5015 6.69682 39.6687C6.86405 39.8359 7.09086 39.9299 7.32736 39.9299H14.5462V41.1615H7.32736C7.0909 41.1616 6.86417 41.2556 6.69696 41.4228C6.52976 41.59 6.43577 41.8167 6.43564 42.0532V42.6901H2.48657V38.4012ZM8.21908 42.9449H14.5462V44.2188H8.21908V42.9449ZM14.5462 1.78549V5.36716H7.32736C7.09125 5.36729 6.86483 5.46101 6.69768 5.62777C6.53054 5.79453 6.43631 6.02074 6.43564 6.25684V6.89379H2.48657V1.78549H14.5462ZM2.48657 44.4736H6.43564V45.1105C6.43577 45.347 6.52976 45.5737 6.69696 45.7409C6.86417 45.9081 7.0909 46.0021 7.32736 46.0022H14.5462V49.5819H2.48657V44.4736ZM20.6609 49.5819H16.3297V1.78549H20.6609V49.5819ZM22.4444 5.24741L24.185 4.49276V46.8705L22.4444 46.1169V5.24741ZM48.8562 46.1169L47.1151 46.8716V4.4948L48.8562 5.25047V46.1169ZM59.3021 49.5819H50.6397V1.78549H59.3021V49.5819Z" fill="#A0148E"/>
</svg>
