<svg width="23" height="14" viewBox="0 0 23 14" fill="none" xmlns="http://www.w3.org/2000/svg">
<path d="M22.3063 11.9636C22.2458 11.8628 21.8716 11.0531 20.0709 9.38881C18.1858 7.64611 18.4391 7.92909 20.7096 4.91579C22.0925 3.08063 22.6453 1.95993 22.4723 1.48083C22.3077 1.02414 21.2906 1.14461 21.2906 1.14461L17.9087 1.16423C17.9087 1.16423 17.6583 1.13061 17.4712 1.24128C17.2897 1.35054 17.1729 1.6027 17.1729 1.6027C17.1729 1.6027 16.637 3.0232 15.9223 4.23076C14.4156 6.77897 13.8121 6.91345 13.5659 6.75515C12.9934 6.38672 13.1369 5.27302 13.1369 4.48292C13.1369 2.01316 13.5125 0.983513 12.4039 0.717345C12.0354 0.629089 11.7653 0.570252 10.8241 0.560446C9.6171 0.547838 8.59437 0.564649 8.01618 0.846226C7.63072 1.03394 7.33389 1.45281 7.51536 1.47662C7.73904 1.50604 8.24548 1.61251 8.51418 1.97674C8.86166 2.44603 8.84899 3.5023 8.84899 3.5023C8.84899 3.5023 9.04876 6.40913 8.38335 6.77056C7.92614 7.01852 7.30012 6.5128 5.95664 4.19994C5.26872 3.01619 4.74821 1.70637 4.74821 1.70637C4.74821 1.70637 4.64833 1.46261 4.46967 1.33233C4.25303 1.17403 3.94916 1.1236 3.94916 1.1236L0.733249 1.14321C0.733249 1.14321 0.250722 1.15722 0.0734669 1.36595C-0.0840931 1.55227 0.0608058 1.93611 0.0608058 1.93611C0.0608058 1.93611 2.57895 7.80161 5.4291 10.7589C8.04431 13.4696 11.0126 13.2917 11.0126 13.2917H12.3575C12.3575 13.2917 12.7641 13.2468 12.9709 13.0241C13.1622 12.8196 13.1552 12.4357 13.1552 12.4357C13.1552 12.4357 13.1284 10.6384 13.9669 10.3736C14.7927 10.1131 15.8534 12.1107 16.9774 12.8798C17.8271 13.4612 18.4728 13.3337 18.4728 13.3337L21.4791 13.2917C21.4791 13.2917 23.0519 13.195 22.3063 11.9636Z" fill="#5282B8"/>
</svg>
